<svg width="21" height="21" viewBox="0 0 21 21" fill="none" xmlns="http://www.w3.org/2000/svg">
<rect width="21" height="21" rx="10.5" fill="#E5E5E5"/>
<path d="M13.7833 5.0117C11.7823 4.62956 9.70425 4.62956 7.70321 5.0117C6.81813 5.20277 5.70216 6.27276 5.50975 7.11347C5.16342 8.75667 5.16342 10.4381 5.50975 12.0813C5.74064 12.922 6.85661 13.992 7.70321 14.1831C7.74169 14.1831 7.78017 14.2213 7.78017 14.2595V16.667C7.78017 16.7816 7.9341 16.858 8.01106 16.7434L9.16551 15.5588C9.16551 15.5588 10.0891 14.6034 10.243 14.4505C10.243 14.4505 10.2815 14.4123 10.32 14.4123C11.4744 14.4506 12.6673 14.3359 13.8218 14.1448C14.7069 13.9538 15.8228 12.8838 16.0152 12.0431C16.3616 10.3999 16.3616 8.71846 16.0152 7.07526C15.7844 6.27276 14.6684 5.20277 13.7833 5.0117ZM13.8218 12.1959C13.6294 12.5781 13.3985 12.8838 13.0137 13.0748C12.8982 13.1131 12.7828 13.1513 12.6673 13.1895C12.5134 13.1513 12.398 13.1131 12.2825 13.0748C11.0511 12.5781 9.89666 11.8902 8.9731 10.8967C8.47284 10.3234 8.04954 9.6738 7.70321 8.98595C7.54928 8.64203 7.39535 8.33632 7.27991 7.99239C7.16446 7.68668 7.35687 7.38097 7.54928 7.15168C7.74169 6.9224 7.97258 6.76954 8.24195 6.6549C8.43436 6.54026 8.62677 6.61669 8.78069 6.76954C9.08855 7.15168 9.3964 7.53382 9.62729 7.95418C9.78122 8.22167 9.74273 8.52739 9.47336 8.71846C9.3964 8.75667 9.35792 8.79488 9.28095 8.87131C9.24247 8.90953 9.16551 8.94774 9.12703 9.02417C9.05006 9.13881 9.05006 9.25345 9.08855 9.36809C9.3964 10.247 9.97362 10.9349 10.8587 11.317C11.0126 11.3934 11.1281 11.4316 11.3205 11.4316C11.5899 11.3934 11.7053 11.0877 11.8977 10.9349C12.0901 10.782 12.321 10.782 12.5519 10.8967C12.7443 11.0113 12.9367 11.1641 13.1676 11.317C13.36 11.4699 13.5524 11.5845 13.7448 11.7374C13.8603 11.8138 13.8988 12.0049 13.8218 12.1959ZM12.2056 9.32988C12.1286 9.32988 12.1671 9.32988 12.2056 9.32988C12.0516 9.32988 12.0132 9.25345 11.9747 9.13881C11.9747 9.06238 11.9747 8.94774 11.9362 8.87131C11.8977 8.71846 11.8207 8.5656 11.6668 8.45096C11.5899 8.41274 11.5129 8.37453 11.4359 8.33632C11.3205 8.2981 11.2435 8.2981 11.1281 8.2981C11.0126 8.25989 10.9741 8.18346 10.9741 8.06882C10.9741 7.99239 11.0896 7.91596 11.1666 7.91596C11.7823 7.95418 12.244 8.2981 12.321 9.02417C12.321 9.06238 12.321 9.13881 12.321 9.17702C12.321 9.25345 12.2825 9.32988 12.2056 9.32988ZM11.8207 7.64847C11.6283 7.57204 11.4359 7.49561 11.205 7.4574C11.1281 7.4574 11.0126 7.41918 10.9357 7.41918C10.8202 7.41918 10.7433 7.34275 10.7817 7.22811C10.7817 7.11347 10.8587 7.03704 10.9741 7.07526C11.359 7.11347 11.7053 7.1899 12.0516 7.34275C12.7443 7.68668 13.1291 8.25989 13.2446 9.02417C13.2446 9.06238 13.2446 9.1006 13.2446 9.13881C13.2446 9.21524 13.2446 9.29166 13.2446 9.40631C13.2446 9.44452 13.2446 9.48274 13.2446 9.52095C13.2061 9.67381 12.9367 9.71202 12.8982 9.52095C12.8982 9.48274 12.8598 9.40631 12.8598 9.36809C12.8598 9.02417 12.7828 8.68024 12.6289 8.37453C12.398 8.0306 12.1286 7.80132 11.8207 7.64847ZM13.8988 9.9413C13.7833 9.9413 13.7063 9.82666 13.7063 9.71202C13.7063 9.48274 13.6679 9.25345 13.6294 9.02417C13.4755 7.80132 12.4749 6.80776 11.282 6.61669C11.0896 6.57847 10.8972 6.57847 10.7433 6.54026C10.6278 6.54026 10.4739 6.54026 10.4354 6.3874C10.3969 6.27276 10.5124 6.15812 10.6278 6.15812C10.6663 6.15812 10.7048 6.15812 10.7048 6.15812C10.7817 6.15812 12.2825 6.19633 10.7048 6.15812C12.321 6.19633 13.6679 7.26633 13.9372 8.87131C13.9757 9.13881 14.0142 9.40631 14.0142 9.71202C14.0912 9.82666 14.0142 9.9413 13.8988 9.9413Z" fill="white"/>
</svg>
