<svg width="22" height="21" viewBox="0 0 22 21" fill="none" xmlns="http://www.w3.org/2000/svg">
<rect width="22" height="21" rx="10.5" fill="#4C4C4C"/>
<path d="M14.4311 11.9663C14.7197 11.6909 14.7609 11.2973 14.5136 10.9038C14.3074 10.5889 13.9364 10.4315 13.5241 10.5102C13.3592 10.5496 13.1942 10.6283 13.0293 10.7463C11.7512 11.5728 10.0196 11.5334 8.74155 10.707C8.6591 10.6676 8.57664 10.6283 8.49418 10.5889C8.04067 10.3922 7.58716 10.4709 7.33979 10.8644C7.05119 11.258 7.09241 11.6909 7.46347 12.045C7.54592 12.1238 7.62838 12.1631 7.66961 12.2418L7.71084 12.2812C8.28804 12.7141 8.98893 12.9896 9.89596 13.1076L9.35998 13.6192C8.90647 14.0521 8.41173 14.5244 7.95821 14.9573C7.83453 15.0753 7.66961 15.2721 7.66961 15.5476C7.66961 15.9018 7.87576 16.256 8.24681 16.4134C8.3705 16.4921 8.49418 16.4921 8.61787 16.4921C8.82401 16.4921 9.07138 16.4134 9.2363 16.2166C9.85472 15.6263 10.3495 15.1541 10.8442 14.6818C10.8854 14.6424 10.8854 14.6424 10.8854 14.6424C10.8854 14.6424 10.9267 14.6424 10.9267 14.6818C11.2565 15.036 11.6276 15.3508 11.9574 15.705C12.1223 15.8624 12.2872 16.0199 12.4521 16.1773C12.6583 16.374 12.8232 16.4528 13.0706 16.4528C13.4416 16.4921 13.8539 16.256 14.0188 15.9018C14.1837 15.5869 14.1013 15.1934 13.8127 14.9573C13.4004 14.5637 12.9881 14.1308 12.5346 13.7373L11.8337 13.0683C12.2048 13.0289 12.617 12.9502 12.9881 12.7928C13.6065 12.596 14.06 12.3205 14.4311 11.9663Z" fill="white"/>
<path d="M10.8854 10.8644C12.6583 10.8644 14.1013 9.52635 14.1013 7.8341C14.1013 7.00766 13.7714 6.22057 13.153 5.63025C12.5346 5.03994 11.7512 4.7251 10.9267 4.7251C9.15384 4.7251 7.75207 6.1025 7.71084 7.75539C7.71084 8.58184 8.04067 9.32958 8.6591 9.91989C9.2363 10.5496 10.0196 10.8644 10.8854 10.8644ZM9.97841 6.92895C10.2258 6.69283 10.5556 6.57476 10.8854 6.57476C11.6276 6.57476 12.1635 7.12572 12.1635 7.79475C12.1635 8.50313 11.5863 9.01474 10.8854 9.01474C10.1433 9.01474 9.60736 8.46378 9.60736 7.79475C9.60736 7.47992 9.73104 7.16508 9.97841 6.92895Z" fill="white"/>
<path d="M14.4311 11.9663C14.7197 11.6909 14.7609 11.2973 14.5136 10.9038C14.3074 10.5889 13.9364 10.4315 13.5241 10.5102C13.3592 10.5496 13.1942 10.6283 13.0293 10.7463C11.7512 11.5728 10.0196 11.5334 8.74155 10.707C8.6591 10.6676 8.57664 10.6283 8.49418 10.5889C8.04067 10.3922 7.58716 10.4709 7.33979 10.8644C7.05119 11.258 7.09241 11.6909 7.46347 12.045C7.54592 12.1238 7.62838 12.1631 7.66961 12.2418L7.71084 12.2812C8.28804 12.7141 8.98893 12.9896 9.89596 13.1076L9.35998 13.6192C8.90647 14.0521 8.41173 14.5244 7.95821 14.9573C7.83453 15.0753 7.66961 15.2721 7.66961 15.5476C7.66961 15.9018 7.87576 16.256 8.24681 16.4134C8.3705 16.4921 8.49418 16.4921 8.61787 16.4921C8.82401 16.4921 9.07138 16.4134 9.2363 16.2166C9.85472 15.6263 10.3495 15.1541 10.8442 14.6818C10.8854 14.6424 10.8854 14.6424 10.8854 14.6424C10.8854 14.6424 10.9267 14.6424 10.9267 14.6818C11.2565 15.036 11.6276 15.3508 11.9574 15.705C12.1223 15.8624 12.2872 16.0199 12.4521 16.1773C12.6583 16.374 12.8232 16.4528 13.0706 16.4528C13.4416 16.4921 13.8539 16.256 14.0188 15.9018C14.1837 15.5869 14.1013 15.1934 13.8127 14.9573C13.4004 14.5637 12.9881 14.1308 12.5346 13.7373L11.8337 13.0683C12.2048 13.0289 12.617 12.9502 12.9881 12.7928C13.6065 12.596 14.06 12.3205 14.4311 11.9663Z" fill="white"/>
</svg>
