<svg width="22" height="21" viewBox="0 0 22 21" fill="none" xmlns="http://www.w3.org/2000/svg">
<rect width="22" height="21" rx="10.5" fill="#E5E5E5"/>
<path d="M15.3598 6.33291C14.2732 5.29932 12.8244 4.7251 11.2951 4.7251C8.11585 4.7251 5.54024 7.1751 5.54024 10.1993C5.54024 11.1563 5.82195 12.1134 6.30488 12.9173L5.5 15.7501L8.55854 14.9845C9.40366 15.4056 10.3293 15.6353 11.2951 15.6353C14.4744 15.6353 17.05 13.1853 17.05 10.161C17.0098 8.74463 16.4463 7.3665 15.3598 6.33291ZM14.072 12.1517C13.9512 12.4579 13.3878 12.7642 13.1061 12.8024C12.8646 12.8407 12.5427 12.8407 12.2207 12.7642C12.0195 12.6876 11.7378 12.611 11.4159 12.4579C9.96707 11.8837 9.04146 10.5056 8.96098 10.3907C8.88049 10.3142 8.35732 9.66338 8.35732 8.97432C8.35732 8.28525 8.71951 7.979 8.84024 7.82588C8.96098 7.67275 9.12195 7.67275 9.24268 7.67275C9.32317 7.67275 9.4439 7.67275 9.52439 7.67275C9.60488 7.67275 9.72561 7.63447 9.84634 7.90244C9.96707 8.17041 10.2488 8.85947 10.289 8.89775C10.3293 8.97432 10.3293 9.05088 10.289 9.12744C10.2488 9.204 10.2085 9.28057 10.128 9.35713C10.0476 9.43369 9.96707 9.54853 9.92683 9.58682C9.84634 9.66338 9.76585 9.73994 9.84634 9.85478C9.92683 10.0079 10.2085 10.429 10.6512 10.8118C11.2146 11.2712 11.6573 11.4243 11.8183 11.5009C11.9793 11.5774 12.0598 11.5392 12.1402 11.4626C12.2207 11.386 12.5024 11.0798 12.5829 10.9267C12.6634 10.7735 12.7841 10.8118 12.9049 10.8501C13.0256 10.8884 13.75 11.2329 13.8707 11.3095C14.0317 11.386 14.1122 11.4243 14.1524 11.4626C14.1927 11.5774 14.1927 11.8454 14.072 12.1517Z" fill="white"/>
</svg>
