<svg width="21" height="21" viewBox="0 0 21 21" fill="none" xmlns="http://www.w3.org/2000/svg">
<rect width="21" height="21" rx="10.5" fill="#E5E5E5"/>
<path d="M11.0154 14.175C7.06924 14.175 4.81839 11.4159 4.72461 6.82495H6.70131C6.76624 10.1946 8.22352 11.6219 9.3778 11.9162V6.82495H11.2391V9.73111C12.3789 9.60603 13.5765 8.28171 13.9805 6.82495H15.8418C15.6895 7.58047 15.3861 8.29582 14.9504 8.92626C14.5146 9.55671 13.9561 10.0887 13.3096 10.4889C14.0312 10.8546 14.6686 11.3722 15.1797 12.0076C15.6908 12.643 16.064 13.3817 16.2746 14.175H14.2258C14.0367 13.4859 13.6524 12.8692 13.1211 12.4019C12.5898 11.9347 11.9351 11.6378 11.2391 11.5484V14.175H11.0154Z" fill="white"/>
</svg>
